<svg xmlns="http://www.w3.org/2000/svg" width="63.433" height="72.498" viewBox="0 0 63.433 72.498">
  <path id="Pfad_12" data-name="Pfad 12" d="M22.555.743a2.868,2.868,0,0,1,3.922.014,114.243,114.243,0,0,1,11,11.894,51.631,51.631,0,0,1,5.239-6.074,2.879,2.879,0,0,1,3.965.014A61.522,61.522,0,0,1,58.647,23.3c2.874,5.777,4.786,11.681,4.786,15.844,0,18.067-14.131,33.331-31.716,33.331C13.933,72.473,0,57.2,0,39.128c0-5.437,2.52-12.078,6.428-18.648A90.57,90.57,0,0,1,22.555.743Zm9.4,58.137A17.1,17.1,0,0,0,41.7,55.907c5.961-4.163,7.561-12.488,3.979-19.03A14.785,14.785,0,0,0,44.29,34.5l-7.165,8.326S25.6,28.155,24.793,27.164c-5.947,7.334-8.934,11.5-8.934,16.255C15.858,53.132,23.023,58.88,31.957,58.88Z" transform="translate(0 0.025)" fill="#fff"/>
</svg>
