<svg xmlns="http://www.w3.org/2000/svg" width="66.329" height="58.038" viewBox="0 0 66.329 58.038">
  <path id="Pfad_13" data-name="Pfad 13" d="M22.8,39.255v5.182H43.529V39.255a1.039,1.039,0,0,0-1.036-1.036H23.837A1.039,1.039,0,0,0,22.8,39.255Zm-6.218,5.182V39.255A7.259,7.259,0,0,1,23.837,32H42.492a7.259,7.259,0,0,1,7.255,7.255v5.182h3.64a6.219,6.219,0,0,1,4.392,1.827L64.5,52.987a6.219,6.219,0,0,1,1.827,4.392v9.859H49.747V65.165a4.146,4.146,0,0,0-8.291,0v2.073H24.873V65.165a4.146,4.146,0,1,0-8.291,0v2.073H0V57.379a6.219,6.219,0,0,1,1.827-4.392L8.55,46.263a6.219,6.219,0,0,1,4.392-1.827ZM0,81.747V71.383H16.582v2.073a4.146,4.146,0,1,0,8.291,0V71.383H41.456v2.073a4.146,4.146,0,0,0,8.291,0V71.383H66.329V81.747a8.3,8.3,0,0,1-8.291,8.291H8.291A8.3,8.3,0,0,1,0,81.747Z" transform="translate(0 -32)" fill="#fff"/>
</svg>
